<?xml version="1.0" encoding="utf-8"?>
<!-- Generator: Adobe Illustrator 19.2.1, SVG Export Plug-In . SVG Version: 6.00 Build 0)  -->
<!DOCTYPE svg PUBLIC "-//W3C//DTD SVG 1.1//EN" "http://www.w3.org/Graphics/SVG/1.1/DTD/svg11.dtd">
<svg version="1.1" id="Layer_1" xmlns="http://www.w3.org/2000/svg" xmlns:xlink="http://www.w3.org/1999/xlink" x="0px" y="0px"
	 viewBox="0 0 81.5 57" enable-background="new 0 0 81.5 57" xml:space="preserve">
<text transform="matrix(1 0 0 1 -475.7329 143.4355)" font-family="'Wingdings-Regular'" font-size="12px">ß</text>
<circle cx="-287.6" cy="35" r="19.3"/>
<polygon fill="#FFFFFF" points="-290,46.3 -278.8,35 -290,23.8 "/>
<g>
	<path d="M-299.4,66.8L-299.4,66.8l0-7.2h0.9v8.5h-1.1l-4.9-7.3h0v7.3h-0.9v-8.5h1.1L-299.4,66.8z"/>
	<path d="M-293,67.3h4.5v0.8h-5.4v-8.5h5.3v0.8h-4.4v2.9h4.1V64h-4.1V67.3z"/>
	<path d="M-281.5,63l2.3-3.4h1l-2.8,4l3.1,4.5h-1.1l-2.6-3.8l-2.6,3.8h-1.1l3.1-4.5l-2.8-4h1.1L-281.5,63z"/>
	<path d="M-271.4,68.1h-0.9v-7.7h-2.8v-0.8h6.6v0.8h-2.8V68.1z"/>
</g>
<path fill="#FFFFFF" d="M41.9,2.2c10.7,0,19.3,8.6,19.3,19.3s-8.6,19.3-19.3,19.3s-19.3-8.6-19.3-19.3S31.2,2.2,41.9,2.2z
	 M44.3,10.3L33,21.5l11.2,11.2V10.3z"/>
<g>
	<path fill="#FFFFFF" d="M5.9,46.1h2.4c0.4,0,0.8,0,1.2,0.1c0.4,0.1,0.7,0.2,0.9,0.4s0.4,0.4,0.6,0.7c0.1,0.3,0.2,0.6,0.2,1
		s-0.1,0.7-0.2,1c-0.1,0.3-0.3,0.5-0.6,0.7s-0.6,0.3-0.9,0.4c-0.4,0.1-0.8,0.1-1.2,0.1H6.8v3.9H5.9V46.1z M6.8,49.9h1.5
		c0.7,0,1.2-0.1,1.5-0.4c0.4-0.3,0.5-0.6,0.5-1.2c0-0.5-0.2-0.9-0.5-1.2c-0.4-0.2-0.9-0.4-1.5-0.4H6.8V49.9z"/>
	<path fill="#FFFFFF" d="M16.2,54.6h-0.9v-8.5h2.5c0.4,0,0.8,0,1.2,0.1c0.4,0.1,0.7,0.2,0.9,0.4c0.3,0.2,0.5,0.4,0.6,0.7
		c0.1,0.3,0.2,0.6,0.2,1.1c0,0.3-0.1,0.6-0.2,0.9c-0.1,0.3-0.3,0.5-0.5,0.7c-0.2,0.2-0.4,0.3-0.7,0.5c-0.3,0.1-0.6,0.2-0.9,0.2
		l2.5,4H20l-2.4-4h-1.4V54.6z M16.2,49.9h1.5c0.7,0,1.2-0.1,1.6-0.4c0.4-0.3,0.6-0.6,0.6-1.1c0-0.3-0.1-0.5-0.2-0.7
		c-0.1-0.2-0.2-0.3-0.4-0.5c-0.2-0.1-0.4-0.2-0.7-0.3c-0.3-0.1-0.6-0.1-0.9-0.1h-1.5V49.9z"/>
	<path fill="#FFFFFF" d="M25.8,53.8h4.5v0.8h-5.4v-8.5h5.3v0.8h-4.4v2.9h4.1v0.8h-4.1V53.8z"/>
	<path fill="#FFFFFF" d="M37,53.5L37,53.5l2.8-7.4h0.9l-3.3,8.5h-0.9l-3.2-8.5h0.9L37,53.5z"/>
	<path fill="#FFFFFF" d="M45.1,54.6h-0.9v-8.5h0.9V54.6z"/>
	<path fill="#FFFFFF" d="M58.2,50.3c0,0.6-0.1,1.2-0.3,1.8c-0.2,0.5-0.5,1-0.9,1.4c-0.4,0.4-0.9,0.7-1.4,0.9
		c-0.5,0.2-1.1,0.3-1.8,0.3s-1.2-0.1-1.8-0.3c-0.5-0.2-1-0.5-1.4-0.9c-0.4-0.4-0.7-0.9-0.9-1.4s-0.3-1.1-0.3-1.8s0.1-1.2,0.3-1.8
		c0.2-0.5,0.5-1,0.9-1.4c0.4-0.4,0.9-0.7,1.4-0.9s1.1-0.3,1.8-0.3s1.2,0.1,1.8,0.3s1,0.5,1.4,0.9c0.4,0.4,0.7,0.9,0.9,1.4
		C58.1,49.1,58.2,49.7,58.2,50.3z M57.3,50.3c0-0.5-0.1-1-0.2-1.4s-0.4-0.8-0.7-1.2c-0.3-0.3-0.7-0.6-1.1-0.8
		c-0.4-0.2-0.9-0.3-1.5-0.3s-1,0.1-1.5,0.3c-0.4,0.2-0.8,0.5-1.1,0.8c-0.3,0.3-0.5,0.7-0.7,1.2s-0.2,0.9-0.2,1.4
		c0,0.5,0.1,1,0.2,1.4s0.4,0.8,0.7,1.2c0.3,0.3,0.7,0.6,1.1,0.8c0.4,0.2,0.9,0.3,1.5,0.3s1-0.1,1.5-0.3c0.4-0.2,0.8-0.5,1.1-0.8
		c0.3-0.3,0.5-0.7,0.7-1.2S57.3,50.8,57.3,50.3z"/>
	<path fill="#FFFFFF" d="M65.5,54.8c-0.6,0-1.2-0.1-1.6-0.3c-0.4-0.2-0.7-0.5-1-0.8c-0.2-0.3-0.4-0.7-0.5-1.1s-0.1-0.8-0.1-1.1v-5.3
		h0.9v5.2c0,0.3,0,0.7,0.1,1c0.1,0.3,0.2,0.6,0.4,0.9s0.4,0.5,0.7,0.6c0.3,0.2,0.7,0.2,1.1,0.2c0.4,0,0.8-0.1,1.1-0.2
		c0.3-0.2,0.5-0.4,0.7-0.6c0.2-0.3,0.3-0.5,0.4-0.9c0.1-0.3,0.1-0.7,0.1-1v-5.2h0.9v5.3c0,0.4,0,0.7-0.1,1.1s-0.3,0.8-0.5,1.1
		c-0.2,0.3-0.6,0.6-1,0.8C66.7,54.7,66.2,54.8,65.5,54.8z"/>
	<path fill="#FFFFFF" d="M77.4,47.4c-0.2-0.3-0.4-0.5-0.7-0.6c-0.3-0.2-0.6-0.2-1-0.2c-0.2,0-0.4,0-0.6,0.1
		c-0.2,0.1-0.4,0.2-0.6,0.3c-0.2,0.1-0.3,0.3-0.4,0.5c-0.1,0.2-0.2,0.4-0.2,0.7s0.1,0.5,0.2,0.7c0.1,0.2,0.2,0.3,0.4,0.4
		c0.2,0.1,0.4,0.2,0.6,0.3c0.2,0.1,0.4,0.2,0.7,0.2c0.3,0.1,0.6,0.2,0.9,0.3c0.3,0.1,0.6,0.3,0.8,0.4c0.2,0.2,0.4,0.4,0.6,0.7
		c0.2,0.3,0.2,0.6,0.2,1.1s-0.1,0.8-0.2,1.1c-0.2,0.3-0.4,0.6-0.6,0.8c-0.3,0.2-0.6,0.3-0.9,0.4c-0.3,0.1-0.7,0.1-1,0.1
		c-0.3,0-0.5,0-0.8-0.1c-0.3-0.1-0.5-0.1-0.7-0.2c-0.2-0.1-0.4-0.2-0.6-0.4c-0.2-0.2-0.4-0.3-0.5-0.6l0.7-0.6
		c0.2,0.3,0.4,0.6,0.8,0.8S75,54,75.5,54c0.2,0,0.4,0,0.7-0.1c0.2-0.1,0.4-0.2,0.6-0.3c0.2-0.1,0.3-0.3,0.4-0.5s0.2-0.4,0.2-0.7
		c0-0.3-0.1-0.5-0.2-0.7c-0.1-0.2-0.3-0.4-0.5-0.5c-0.2-0.1-0.4-0.2-0.7-0.3s-0.5-0.2-0.8-0.3c-0.3-0.1-0.6-0.2-0.8-0.3
		c-0.3-0.1-0.5-0.3-0.7-0.4c-0.2-0.2-0.4-0.4-0.5-0.7c-0.1-0.3-0.2-0.6-0.2-1c0-0.4,0.1-0.8,0.2-1.1c0.2-0.3,0.4-0.5,0.6-0.7
		c0.3-0.2,0.6-0.3,0.9-0.4c0.3-0.1,0.6-0.1,0.9-0.1c0.6,0,1.1,0.1,1.5,0.3c0.4,0.2,0.7,0.4,0.9,0.7L77.4,47.4z"/>
</g>
<rect x="-557.4" y="-47.8" fill="none" width="109.3" height="27.5"/>
<text transform="matrix(1 0 0 1 -549.4575 -38.9014)"><tspan x="0" y="0" fill="#FFFFFF" font-family="'AvenirNextCondensed-Medium'" font-size="11.7043px">What are the benefits of  </tspan><tspan x="1.7" y="11.7" fill="#FFFFFF" font-family="'AvenirNextCondensed-Medium'" font-size="11.7043px">lung cancer screening?</tspan></text>
<rect x="-418.1" y="-47.4" fill="none" width="109.3" height="27.5"/>
<text transform="matrix(1 0 0 1 -406.7572 -38.568)"><tspan x="0" y="0" fill="#FFFFFF" font-family="'AvenirNextCondensed-Medium'" font-size="11.7043px">What are the harms of  </tspan><tspan x="-1.8" y="11.7" fill="#FFFFFF" font-family="'AvenirNextCondensed-Medium'" font-size="11.7043px">lung cancer screening?</tspan></text>
<rect x="-288.8" y="-47.8" fill="none" width="109.3" height="27.5"/>
<text transform="matrix(1 0 0 1 -258.8105 -38.9014)"><tspan x="0" y="0" fill="#FFFFFF" font-family="'AvenirNextCondensed-Medium'" font-size="11.7043px">Other things  </tspan><tspan x="-2.9" y="11.7" fill="#FFFFFF" font-family="'AvenirNextCondensed-Medium'" font-size="11.7043px">to think about</tspan></text>
<rect x="-190.2" y="-47.8" fill="none" width="109.3" height="27.5"/>
<text transform="matrix(1 0 0 1 -161.1064 -38.9014)"><tspan x="0" y="0" fill="#FFFFFF" font-family="'AvenirNextCondensed-Medium'" font-size="11.7043px">What is most </tspan><tspan x="-9.4" y="11.7" fill="#FFFFFF" font-family="'AvenirNextCondensed-Medium'" font-size="11.7043px">important to you?</tspan></text>
<rect x="-723.4" y="-47.8" fill="none" width="109.3" height="27.5"/>
<text transform="matrix(1 0 0 1 -693.519 -38.9014)"><tspan x="0" y="0" fill="#FFFFFF" font-family="'AvenirNextCondensed-Medium'" font-size="11.7043px">What is lung </tspan><tspan x="-10.1" y="11.7" fill="#FFFFFF" font-family="'AvenirNextCondensed-Medium'" font-size="11.7043px">cancer screening?</tspan></text>
</svg>
